# Blender v2.61 (sub 0) OBJ File: 'rounded_cube.blend'
# www.blender.org
o rounded_cube_r000_Cylinder.001
v 0.500000 -0.500000 -0.500000
v -0.500000 -0.500000 -0.500000
v -0.500000 0.500000 0.500000
v 0.500000 0.500000 0.500000
v -0.500000 0.500000 -0.500000
v 0.500000 0.500000 -0.500000
v -0.500000 -0.500000 0.500000
v 0.500000 -0.500000 0.500000
vt 0.000000 0.000000
vt 1.000000 0.000000
vt 1.000000 1.000000
vt 0.000000 1.000000
vn 0.000000 0.000000 1.000000
vn 1.000000 0.000000 0.000000
vn 0.000000 -0.000000 -1.000000
vn -1.000000 0.000000 0.000000
vn 0.000000 1.000000 -0.000000
vn 0.000000 -1.000000 -0.000000
s off
f 7/1/1 8/2/1 4/3/1 3/4/1
f 1/2/2 6/3/2 4/4/2 8/1/2
f 1/2/3 2/1/3 5/4/3 6/3/3
f 3/4/4 5/3/4 2/2/4 7/1/4
f 3/1/5 4/2/5 6/3/5 5/4/5
f 2/4/6 1/3/6 8/2/6 7/1/6
